<svg width="290" height="130" viewBox="0 0 290 130" fill="none" xmlns="http://www.w3.org/2000/svg">
<path d="M0 121.6V17.0176L73.2079 90.2255H31.3748L0 121.6Z" fill="white"/>
<path d="M82.2255 81.2079V8H9.01758L24.8148 23.7972H66.4283V65.4107L82.2255 81.2079Z" fill="#AEBAE5"/>
<path d="M112.225 36.8H133.148C136.922 36.8 140.26 37.5596 143.16 39.0787C146.106 40.5978 148.385 42.7154 149.996 45.4314C151.653 48.1474 152.482 51.2546 152.482 54.7532C152.482 58.4359 151.653 61.7273 149.996 64.6274C148.385 67.4815 146.106 69.7141 143.16 71.3253C140.26 72.9365 136.922 73.7421 133.148 73.7421H124.516V92.0405H112.225V36.8ZM132.664 62.694C134.091 62.694 135.357 62.3948 136.462 61.7964C137.613 61.1519 138.488 60.2772 139.086 59.1724C139.73 58.0216 140.053 56.7096 140.053 55.2365C140.053 53.8095 139.73 52.5436 139.086 51.4388C138.488 50.2879 137.613 49.4133 136.462 48.8148C135.357 48.1704 134.091 47.8481 132.664 47.8481H124.516V62.694H132.664Z" fill="white"/>
<path d="M199.958 92.0405H187.874V86.3784C187.414 87.4371 186.631 88.4499 185.527 89.4166C184.468 90.3833 183.087 91.1889 181.384 91.8333C179.726 92.4778 177.816 92.8 175.652 92.8C172.246 92.8 169.185 91.9945 166.469 90.3833C163.753 88.7261 161.612 86.4244 160.047 83.4782C158.482 80.5321 157.699 77.1716 157.699 73.3968V47.1576H169.99V72.7063C169.99 74.5017 170.358 76.0898 171.095 77.4708C171.832 78.8518 172.867 79.9336 174.202 80.7162C175.537 81.4527 177.079 81.821 178.829 81.821C180.578 81.821 182.12 81.4527 183.455 80.7162C184.79 79.9336 185.826 78.8518 186.562 77.4708C187.299 76.0898 187.667 74.5017 187.667 72.7063V47.1576H199.958V92.0405Z" fill="white"/>
<path d="M223.812 92.8C220.129 92.8 216.884 92.0865 214.076 90.6595C211.268 89.2324 209.081 87.253 207.516 84.7211C205.997 82.1893 205.237 79.2661 205.237 75.9517H217.114C217.114 77.1946 217.413 78.2994 218.012 79.2661C218.656 80.2328 219.508 80.9924 220.567 81.5448C221.671 82.0972 222.937 82.3734 224.364 82.3734C225.377 82.3734 226.344 82.2353 227.265 81.9591C228.185 81.6829 228.945 81.2686 229.543 80.7162C230.142 80.1178 230.441 79.3812 230.441 78.5066C230.441 77.678 230.188 77.0105 229.681 76.5041C229.175 75.9977 228.484 75.5834 227.61 75.2612C226.781 74.939 225.607 74.5707 224.088 74.1564L221.464 73.4659C221.004 73.2818 220.544 73.1437 220.083 73.0516C217.321 72.269 215.043 71.4864 213.247 70.7039C211.452 69.8753 209.887 68.6324 208.552 66.9751C207.217 65.3179 206.549 63.0853 206.549 60.2772C206.549 57.4692 207.24 55.0064 208.621 52.8888C210.002 50.7713 211.912 49.1371 214.352 47.9862C216.838 46.7894 219.669 46.1909 222.845 46.1909C226.114 46.1909 229.06 46.8124 231.684 48.0553C234.354 49.2982 236.425 51.0475 237.898 53.3031C239.371 55.5127 240.108 58.0446 240.108 60.8987H228.438C228.438 59.6558 227.955 58.6661 226.988 57.9295C226.068 57.193 224.871 56.8247 223.398 56.8247C222.063 56.8247 220.935 57.1469 220.014 57.7914C219.14 58.3899 218.702 59.2185 218.702 60.2772C218.702 61.0138 218.932 61.6122 219.393 62.0726C219.899 62.5329 220.59 62.9242 221.464 63.2464C222.385 63.5686 223.628 63.9369 225.193 64.3512C225.699 64.4893 226.344 64.6735 227.126 64.9036C227.587 64.9957 228.07 65.1338 228.577 65.3179C231.431 66.1465 233.778 67.0212 235.62 67.9418C237.461 68.8165 239.003 70.1054 240.246 71.8087C241.535 73.4659 242.179 75.6755 242.179 78.4375C242.179 81.4297 241.397 84.0076 239.832 86.1712C238.313 88.3348 236.172 89.992 233.41 91.1428C230.648 92.2476 227.449 92.8 223.812 92.8Z" fill="white"/>
<path d="M247.594 36.8H259.885V52.4745C260.345 51.5078 261.104 50.5641 262.163 49.6435C263.268 48.6767 264.649 47.8942 266.306 47.2957C267.963 46.6973 269.828 46.3981 271.899 46.3981C275.306 46.3981 278.367 47.2267 281.083 48.8839C283.799 50.4951 285.94 52.7737 287.505 55.7199C289.07 58.6661 289.852 62.0265 289.852 65.8013V92.0405H277.561V66.4918C277.561 64.6965 277.193 63.1083 276.457 61.7273C275.72 60.3463 274.684 59.2875 273.349 58.551C272.014 57.7684 270.472 57.3771 268.723 57.3771C266.974 57.3771 265.432 57.7684 264.097 58.551C262.762 59.2875 261.726 60.3463 260.989 61.7273C260.253 63.1083 259.885 64.6965 259.885 66.4918V92.0405H247.594V36.8Z" fill="white"/>
</svg>
