<svg width="700" height="320" viewBox="0 0 700 320" fill="none" xmlns="http://www.w3.org/2000/svg">
<g clip-path="url(#clip0_1_28)">
<rect width="699.813" height="320" rx="10" fill="#010829"/>
<path d="M481.992 39.2016C492.339 42.7267 502.618 45.1169 512.582 46.4054C554.886 51.8804 595.644 70.1855 622.909 97.5127C650.174 124.84 659.901 157.195 651.494 185.632C649.502 192.334 648.866 199.64 649.844 207.434C653.633 238.266 683.939 269.143 724.721 283.517C796.464 308.794 864.87 277.82 857.219 223.524C852.866 192.628 821.869 162.064 780.917 148.085C770.57 144.56 760.291 142.17 750.327 140.881C708.023 135.406 667.265 117.101 640 89.7742C612.734 62.447 603.008 30.0913 611.415 1.65481C613.407 -5.04682 614.043 -12.3531 613.065 -20.1468C609.276 -50.9795 578.97 -81.8561 538.187 -96.2302C466.445 -121.507 398.039 -90.5336 405.69 -36.237C410.043 -5.34171 441.04 25.2223 481.992 39.2016Z" fill="#3E56B7"/>
<path d="M182.711 294.274C172.818 289.812 162.791 286.452 152.89 284.188C110.852 274.573 72.6628 252.726 49.7901 223.545C26.9174 194.364 22.7678 162.12 36.3582 135.517C39.5714 129.248 41.5141 122.257 41.9022 114.63C43.5181 84.4651 18.1841 51.5451 -20.7281 33.4914C-89.1817 1.74099 -164.221 24.6576 -166.072 77.8787C-167.126 108.162 -141.034 140.851 -101.879 158.54C-91.9854 163.003 -81.9586 166.363 -72.0577 168.627C-30.0199 178.242 8.16951 200.089 31.0422 229.27C53.9149 258.451 58.0645 290.694 44.4741 317.298C41.2609 323.566 39.3183 330.557 38.9301 338.184C37.3143 368.35 62.6483 401.27 101.56 419.323C170.014 451.074 245.053 428.157 246.904 374.936C247.958 344.653 221.866 311.964 182.711 294.274Z" fill="#3E56B7"/>
<path d="M303.216 230V102L393.216 191.6H341.788L303.216 230Z" fill="white"/>
<path d="M405.216 181V90H315.216L334.637 109.636H385.796V161.364L405.216 181Z" fill="#B0BAE2"/>
</g>
<defs>
<clipPath id="clip0_1_28">
<rect width="699.813" height="320" rx="10" fill="white"/>
</clipPath>
</defs>
</svg>
